<?xml version="1.0" standalone="no"?>
<!DOCTYPE svg PUBLIC "-//W3C//DTD SVG 20010904//EN"
 "http://www.w3.org/TR/2001/REC-SVG-20010904/DTD/svg10.dtd">
<svg version="1.0" xmlns="http://www.w3.org/2000/svg"
 width="6000.000000pt" height="3375.000000pt" viewBox="0 0 6000.000000 3375.000000"
 preserveAspectRatio="xMidYMid meet">

<g transform="translate(0.000000,3375.000000) scale(0.100000,-0.100000)"
fill="#000000" stroke="none">
<path d="M24470 29179 c-573 -39 -1149 -186 -1688 -429 -783 -354 -1467 -911
-1975 -1610 -445 -612 -757 -1358 -877 -2100 -57 -355 -54 -233 -60 -2320 l-5
-1925 -400 -6 c-427 -6 -445 -8 -611 -64 -413 -139 -729 -514 -794 -944 -7
-44 -10 -1548 -8 -4446 l3 -4380 26 -96 c120 -431 421 -739 849 -866 l95 -28
5760 -3 c5274 -2 5767 -1 5840 14 428 87 773 389 910 798 59 175 58 162 62
929 l4 707 3161 0 3161 0 697 -695 696 -695 507 0 506 0 17 -57 c23 -83 95
-218 154 -290 103 -127 268 -231 435 -274 161 -42 382 -23 531 45 222 102 396
307 461 546 25 90 24 318 -1 410 -73 268 -273 483 -529 571 -436 149 -904 -90
-1047 -535 l-22 -66 -436 0 -437 0 -695 695 -695 695 -3232 0 -3233 0 0 545 0
545 639 0 638 0 13 -47 c20 -75 75 -189 124 -256 201 -279 564 -409 886 -316
269 77 485 291 570 564 28 90 36 237 21 345 -50 340 -308 615 -643 685 -156
33 -358 11 -502 -54 -214 -97 -387 -294 -451 -514 l-16 -57 -640 0 -639 0 0
540 0 540 1518 0 1518 0 683 -685 683 -685 1528 0 1528 0 26 -82 c114 -362
486 -601 866 -558 287 32 534 211 654 472 58 125 70 185 70 348 0 131 -3 153
-28 230 -67 204 -174 344 -344 455 -141 91 -269 128 -442 127 -141 0 -236 -23
-365 -86 -199 -98 -358 -285 -420 -494 l-19 -62 -1455 0 -1456 0 -685 685
-685 685 -1587 0 -1588 0 0 540 0 540 4366 -2 4366 -3 23 -72 c84 -264 305
-472 580 -544 102 -26 269 -29 375 -6 87 19 236 88 312 145 142 105 257 276
305 452 25 90 24 318 -1 410 -57 207 -198 395 -376 501 -453 269 -1036 43
-1200 -464 l-22 -67 -4364 0 -4364 0 0 540 0 540 639 0 638 0 13 -47 c77 -288
330 -524 625 -585 115 -23 266 -20 370 8 302 81 538 328 600 629 86 419 -176
844 -590 957 -91 25 -261 34 -351 19 -211 -37 -417 -168 -535 -342 -47 -69
-101 -183 -118 -246 l-12 -43 -639 0 -640 0 0 540 0 540 1783 0 1782 0 715
-715 715 -715 418 -2 419 -3 27 -81 c109 -324 389 -538 736 -561 343 -23 679
194 805 519 119 306 48 639 -184 874 -159 159 -359 244 -578 244 -264 -1 -515
-128 -664 -335 -51 -73 -108 -187 -125 -256 l-13 -49 -345 0 -346 0 -720 720
-720 720 -1879 2 -1879 3 -17 50 c-140 410 -510 720 -943 790 -69 11 -181 15
-449 15 l-358 0 0 110 0 110 3538 0 3537 0 740 -740 740 -740 998 -2 999 -3
23 -72 c78 -247 272 -441 525 -525 89 -30 104 -32 245 -32 177 -1 235 11 371
79 166 83 288 205 369 370 66 135 80 195 79 360 0 115 -4 154 -22 218 -75 261
-272 471 -525 558 -436 149 -904 -90 -1047 -535 l-22 -66 -921 0 -922 0 -740
740 -740 740 -3613 0 -3612 0 0 540 0 540 4393 0 4393 0 14 -52 c25 -99 105
-240 182 -323 171 -183 358 -266 603 -267 147 -1 239 21 370 87 208 104 365
300 426 530 29 110 29 287 0 400 -41 157 -144 325 -262 424 -168 143 -401 215
-616 191 -196 -22 -346 -94 -489 -235 -114 -112 -198 -255 -220 -371 l-6 -34
-4394 0 -4394 0 0 540 0 540 2065 0 c1826 0 2065 -2 2065 -15 0 -8 10 -43 22
-77 72 -212 252 -403 456 -487 104 -43 197 -61 317 -61 224 0 408 74 569 229
165 159 248 351 248 576 0 245 -82 437 -261 607 -101 97 -222 164 -356 199
-109 29 -288 29 -396 1 -281 -75 -499 -278 -585 -547 l-22 -70 -2060 -3 -2060
-2 -6 107 c-22 413 -42 606 -89 851 l-24 122 2556 0 2556 0 1235 1235 1235
1235 787 0 c698 0 788 -2 788 -15 0 -9 11 -48 25 -87 84 -239 297 -437 547
-508 96 -28 245 -36 345 -20 309 49 562 267 659 565 39 117 45 304 15 430 -42
174 -143 338 -278 450 -66 55 -227 135 -323 161 -100 27 -301 25 -405 -5 -170
-47 -324 -148 -432 -281 -60 -75 -126 -201 -146 -280 l-14 -55 -857 -3 -858
-2 -1236 -1235 -1237 -1234 -2527 -1 -2527 0 -22 73 c-66 223 -217 581 -354
837 -517 965 -1338 1738 -2325 2185 -545 248 -1111 390 -1725 435 -159 11
-504 11 -675 -1z m15261 -777 c358 -94 470 -543 198 -797 -146 -137 -373 -163
-546 -64 -125 71 -213 204 -234 351 -39 270 185 523 466 526 28 1 80 -7 116
-16z m-14486 -1192 c522 -78 1007 -285 1425 -609 111 -86 360 -329 467 -456
336 -400 575 -935 653 -1465 37 -252 41 -487 38 -2220 l-3 -1665 -3003 -3
-3003 -2 4 1877 c3 1876 3 1878 24 2011 75 456 224 840 471 1216 207 314 521
630 837 840 419 278 885 445 1390 496 151 15 539 4 700 -20z m9528 -2701 c155
-24 286 -122 354 -265 37 -78 38 -81 38 -199 0 -117 -1 -122 -36 -196 -48 -99
-124 -176 -227 -226 -69 -35 -83 -38 -176 -41 -123 -5 -199 17 -292 84 -75 53
-114 101 -156 191 -28 59 -33 81 -36 166 -4 81 -1 109 18 168 59 183 216 302
433 328 5 1 41 -4 80 -10z m4788 -1471 c156 -75 243 -193 270 -367 32 -212
-103 -427 -317 -501 -78 -28 -209 -29 -286 -3 -133 45 -230 131 -290 259 -32
66 -33 74 -33 190 0 119 0 121 38 198 50 99 125 175 221 221 89 42 99 44 222
41 93 -2 108 -6 175 -38z m1694 -2880 c111 -28 233 -123 287 -224 144 -267 6
-595 -286 -679 -45 -13 -83 -16 -152 -13 -80 4 -103 10 -169 41 -189 90 -301
297 -268 494 17 100 71 200 143 266 126 117 280 156 445 115z m-7454 -1394
c170 -50 290 -172 334 -341 83 -319 -198 -626 -526 -576 -226 35 -399 240
-399 473 0 103 60 241 140 321 118 119 298 168 451 123z m4560 -2 c130 -36
234 -124 295 -247 91 -186 52 -401 -100 -543 -78 -72 -150 -108 -250 -124
-325 -50 -600 248 -525 571 58 253 328 413 580 343z m-13330 -38 c430 -72 809
-361 994 -758 93 -199 130 -387 121 -621 -9 -262 -76 -472 -222 -697 -65 -99
-268 -301 -369 -366 -44 -28 -87 -57 -96 -64 -14 -12 14 -220 302 -2188 174
-1196 320 -2192 323 -2212 l6 -38 -1280 0 c-704 0 -1280 2 -1280 5 0 2 119
822 265 1822 426 2912 383 2604 361 2617 -363 210 -608 559 -672 954 -17 109
-20 328 -5 423 47 293 176 542 388 752 211 209 483 342 778 380 82 11 299 6
386 -9z m16224 -1386 c111 -28 233 -123 287 -224 78 -144 76 -328 -5 -466 -39
-67 -138 -155 -214 -191 -59 -27 -81 -32 -170 -35 -124 -5 -203 17 -291 83
-110 80 -171 179 -194 313 -33 195 79 402 267 492 98 47 207 57 320 28z
m-1256 -2807 c156 -49 273 -174 316 -338 75 -289 -151 -574 -455 -574 -218 0
-399 142 -455 358 -53 202 51 425 243 522 34 17 79 35 100 40 67 16 186 12
251 -8z m-6217 -52 c252 -54 418 -323 353 -574 -38 -146 -157 -275 -303 -327
-83 -30 -225 -29 -307 2 -214 81 -344 303 -306 520 47 264 301 434 563 379z
m7543 -2859 c127 -61 226 -178 260 -305 77 -297 -144 -585 -450 -586 -237 -1
-426 161 -467 398 -32 193 72 392 253 484 83 41 120 49 234 45 90 -2 107 -6
170 -36z"/>
<path d="M28900 9466 c-150 -32 -279 -149 -323 -291 -70 -229 25 -455 232
-554 67 -31 87 -36 171 -39 105 -4 184 15 262 64 147 93 227 274 200 452 -16
102 -53 174 -126 248 -113 112 -259 155 -416 120z"/>
<path d="M36952 7578 l3 -1663 383 -3 382 -2 0 1665 0 1665 -385 0 -385 0 2
-1662z"/>
<path d="M16595 9104 c-341 -46 -576 -152 -757 -342 -158 -165 -231 -360 -231
-617 0 -208 44 -355 145 -490 74 -98 151 -156 313 -235 146 -71 261 -112 505
-179 361 -100 484 -165 555 -292 27 -49 30 -62 30 -149 0 -81 -4 -102 -25
-143 -30 -60 -76 -102 -150 -136 -50 -24 -66 -26 -180 -26 -107 0 -132 3 -172
22 -106 48 -176 145 -200 276 l-13 67 -407 0 c-276 0 -408 -3 -408 -10 0 -42
24 -216 36 -265 19 -73 80 -206 125 -271 105 -153 289 -281 509 -356 256 -86
644 -98 917 -27 294 76 565 285 688 529 154 307 111 711 -102 941 -65 69 -144
124 -268 183 -123 59 -225 95 -530 182 -303 87 -386 124 -466 203 -70 70 -99
141 -99 240 0 91 21 148 77 204 65 66 133 91 248 92 77 0 98 -4 145 -26 102
-49 169 -139 194 -263 l13 -61 418 -3 417 -2 -6 67 c-21 206 -66 351 -151 478
-130 196 -345 323 -651 386 -74 15 -149 21 -294 24 -107 2 -208 1 -225 -1z"/>
<path d="M34480 7490 l0 -1580 380 0 380 0 0 655 0 655 483 2 482 3 3 287 2
288 -482 2 -483 3 0 340 0 340 643 3 642 2 0 290 0 290 -1025 0 -1025 0 0
-1580z"/>
<path d="M30020 8725 l0 -305 -120 0 -120 0 0 -315 0 -314 118 -3 117 -3 6
-630 c6 -655 7 -663 53 -795 83 -238 261 -369 581 -425 59 -10 185 -18 363
-22 l272 -6 0 325 0 326 -182 4 c-207 4 -254 16 -299 79 l-24 34 -3 558 -3
557 251 0 250 0 0 315 0 315 -250 0 -250 0 0 305 0 305 -380 0 -380 0 0 -305z"/>
<path d="M19435 8444 c-327 -24 -582 -131 -788 -333 -221 -215 -330 -464 -356
-811 -20 -274 23 -541 121 -747 164 -347 476 -579 872 -650 110 -19 356 -22
471 -4 267 42 486 146 668 320 101 96 163 178 222 292 37 72 85 188 85 206 0
1 -186 3 -414 3 l-414 0 -41 -48 c-46 -56 -130 -104 -212 -122 -33 -7 -99 -11
-165 -8 -93 3 -116 8 -159 30 -79 41 -131 83 -174 140 -36 48 -81 155 -81 193
0 13 95 15 864 15 l863 0 6 68 c23 238 -8 511 -78 698 -148 393 -491 664 -935
738 -91 16 -274 26 -355 20z m257 -672 c157 -44 296 -191 315 -333 l6 -39
-471 0 -470 0 13 49 c40 152 169 287 313 326 72 20 216 18 294 -3z"/>
<path d="M22165 8443 c-612 -37 -1050 -441 -1134 -1047 -16 -111 -13 -364 4
-481 42 -276 151 -501 335 -686 172 -173 381 -279 644 -326 125 -22 380 -22
506 1 443 80 775 359 916 770 13 38 24 73 24 78 0 4 -186 8 -412 8 l-413 0
-35 -56 c-45 -72 -102 -119 -176 -145 -49 -17 -78 -20 -174 -17 -107 3 -120 5
-182 36 -195 96 -299 365 -268 693 23 240 117 414 263 482 153 73 354 56 464
-38 23 -19 57 -60 77 -90 l37 -55 410 0 c291 0 409 3 409 11 0 23 -61 191 -91
251 -151 302 -431 510 -785 583 -76 16 -285 36 -339 33 -16 -1 -52 -3 -80 -5z"/>
<path d="M28218 8440 c-86 -10 -180 -42 -266 -88 -85 -47 -222 -182 -288 -284
-27 -42 -54 -84 -61 -95 -9 -14 -12 31 -12 215 l-1 232 -385 0 -385 0 2 -1252
3 -1253 382 -3 382 -2 3 682 c4 676 4 684 27 758 28 94 58 145 113 196 93 86
231 124 449 124 l129 0 0 390 c0 306 -3 390 -12 389 -7 -1 -43 -5 -80 -9z"/>
<path d="M39275 8440 c-330 -30 -597 -152 -821 -375 -169 -169 -262 -339 -315
-580 -26 -118 -36 -377 -20 -509 25 -193 91 -379 187 -527 101 -155 309 -337
489 -427 323 -161 763 -183 1115 -56 352 126 625 399 740 740 56 164 65 230
65 464 0 234 -9 300 -64 463 -56 163 -131 287 -250 410 -251 260 -536 384
-926 400 -60 3 -150 1 -200 -3z m306 -674 c169 -59 290 -195 341 -383 30 -111
30 -325 0 -436 -46 -170 -147 -297 -289 -365 l-78 -37 -136 0 -135 0 -78 38
c-152 76 -252 202 -297 374 -25 99 -27 294 -5 403 41 197 177 354 356 411 85
27 237 25 321 -5z"/>
<path d="M23773 7568 c3 -747 5 -861 20 -918 96 -386 313 -625 655 -726 105
-31 311 -43 438 -26 125 17 260 65 350 124 82 53 178 145 223 212 l26 40 5
-180 5 -179 383 -3 382 -2 0 1255 0 1255 -385 0 -385 0 0 -727 c0 -798 0 -794
-60 -914 -75 -148 -223 -229 -420 -229 -242 0 -414 127 -465 341 -12 54 -15
178 -15 797 l0 732 -380 0 -381 0 4 -852z"/>
<path d="M28620 7165 l0 -1255 383 2 382 3 3 1253 2 1252 -385 0 -385 0 0
-1255z"/>
<path d="M31393 8408 c76 -187 961 -2419 964 -2433 3 -12 -105 -275 -260 -638
l-265 -617 401 2 401 3 797 1845 797 1845 -396 3 c-218 1 -399 -1 -402 -5 -4
-5 -56 -138 -115 -298 -283 -766 -487 -1310 -493 -1322 -5 -7 -61 143 -136
365 -70 207 -196 576 -278 820 l-150 442 -435 0 c-344 0 -434 -3 -430 -12z"/>
<path d="M40793 8413 c3 -5 170 -559 371 -1233 202 -674 371 -1235 376 -1247
l10 -23 409 0 409 0 11 48 c25 113 342 1426 345 1430 6 5 4 16 181 -738 91
-388 168 -713 171 -723 5 -16 31 -17 416 -15 l411 3 369 1230 c202 677 371
1240 374 1253 l6 22 -359 0 -360 0 -194 -875 c-107 -481 -196 -875 -199 -875
-3 0 -88 379 -189 843 -102 463 -188 857 -193 875 l-9 32 -404 0 c-376 0 -404
-1 -409 -17 -2 -10 -89 -404 -192 -876 -103 -471 -191 -854 -195 -850 -4 5
-89 379 -189 833 -100 454 -186 844 -192 868 l-10 42 -385 0 c-211 0 -382 -3
-380 -7z"/>
</g>
</svg>
